<svg id="visual" viewBox="0 0 960 540" width="960" height="540" xmlns="http://www.w3.org/2000/svg" xmlns:xlink="http://www.w3.org/1999/xlink" version="1.1"><g stroke-width="1" stroke-linejoin="bevel"><path d="M522.3 324L557.3 274L494.3 193Z" fill="#00101c" stroke="#00101c"></path><path d="M494.3 193L442.7 338L522.3 324Z" fill="#297ea6" stroke="#297ea6"></path><path d="M494.3 193L393.7 268L442.7 338Z" fill="#081a28" stroke="#081a28"></path><path d="M494.3 193L420.7 168L393.7 268Z" fill="#081a28" stroke="#081a28"></path><path d="M420.7 168L350 251L393.7 268Z" fill="#00101c" stroke="#00101c"></path><path d="M308 348L416.7 414L442.7 338Z" fill="#15384f" stroke="#15384f"></path><path d="M557.3 274L606 168L494.3 193Z" fill="#277297" stroke="#277297"></path><path d="M494.3 193L529.3 92L420.7 168Z" fill="#15384f" stroke="#15384f"></path><path d="M308 348L442.7 338L393.7 268Z" fill="#1d4e6b" stroke="#1d4e6b"></path><path d="M442.7 338L541.3 451L522.3 324Z" fill="#0c2435" stroke="#0c2435"></path><path d="M668 391L655 245L557.3 274Z" fill="#15384f" stroke="#15384f"></path><path d="M557.3 274L655 245L606 168Z" fill="#246688" stroke="#246688"></path><path d="M668 391L557.3 274L522.3 324Z" fill="#081a28" stroke="#081a28"></path><path d="M606 168L529.3 92L494.3 193Z" fill="#15384f" stroke="#15384f"></path><path d="M420.7 168L324 184L350 251Z" fill="#00101c" stroke="#00101c"></path><path d="M402.7 96L324 184L420.7 168Z" fill="#00101c" stroke="#00101c"></path><path d="M529.3 92L402.7 96L420.7 168Z" fill="#19435d" stroke="#19435d"></path><path d="M416.7 414L541.3 451L442.7 338Z" fill="#1d4e6b" stroke="#1d4e6b"></path><path d="M739.7 115L625 120L606 168Z" fill="#0c2435" stroke="#0c2435"></path><path d="M606 168L625 120L529.3 92Z" fill="#1d4e6b" stroke="#1d4e6b"></path><path d="M245.3 293L308 348L350 251Z" fill="#246688" stroke="#246688"></path><path d="M350 251L308 348L393.7 268Z" fill="#112e42" stroke="#112e42"></path><path d="M541.3 451L668 391L522.3 324Z" fill="#19435d" stroke="#19435d"></path><path d="M668 391L717.7 297L655 245Z" fill="#1d4e6b" stroke="#1d4e6b"></path><path d="M655 245L739.7 115L606 168Z" fill="#00101c" stroke="#00101c"></path><path d="M541.3 451L652 440L668 391Z" fill="#246688" stroke="#246688"></path><path d="M668 391L774.7 383L717.7 297Z" fill="#0c2435" stroke="#0c2435"></path><path d="M324 184L245.3 293L350 251Z" fill="#0c2435" stroke="#0c2435"></path><path d="M308 348L353 473L416.7 414Z" fill="#297ea6" stroke="#297ea6"></path><path d="M416.7 414L462.7 540L541.3 451Z" fill="#00101c" stroke="#00101c"></path><path d="M541.3 451L636 540L652 440Z" fill="#15384f" stroke="#15384f"></path><path d="M229.3 486L353 473L308 348Z" fill="#277297" stroke="#277297"></path><path d="M437.7 0L340 53L402.7 96Z" fill="#277297" stroke="#277297"></path><path d="M402.7 96L340 53L324 184Z" fill="#15384f" stroke="#15384f"></path><path d="M324 184L243.3 166L245.3 293Z" fill="#1d4e6b" stroke="#1d4e6b"></path><path d="M252.3 126L243.3 166L324 184Z" fill="#246688" stroke="#246688"></path><path d="M529.3 92L437.7 0L402.7 96Z" fill="#277297" stroke="#277297"></path><path d="M555.3 0L437.7 0L529.3 92Z" fill="#00101c" stroke="#00101c"></path><path d="M625 120L555.3 0L529.3 92Z" fill="#112e42" stroke="#112e42"></path><path d="M340 53L252.3 126L324 184Z" fill="#1d4e6b" stroke="#1d4e6b"></path><path d="M353 473L462.7 540L416.7 414Z" fill="#277297" stroke="#277297"></path><path d="M462.7 540L550.3 540L541.3 451Z" fill="#00101c" stroke="#00101c"></path><path d="M762.7 144L739.7 115L655 245Z" fill="#19435d" stroke="#19435d"></path><path d="M625 120L630 0L555.3 0Z" fill="#112e42" stroke="#112e42"></path><path d="M721.7 0L630 0L625 120Z" fill="#297ea6" stroke="#297ea6"></path><path d="M717.7 297L762.7 144L655 245Z" fill="#277297" stroke="#277297"></path><path d="M750.7 540L753.7 413L652 440Z" fill="#19435d" stroke="#19435d"></path><path d="M652 440L753.7 413L668 391Z" fill="#297ea6" stroke="#297ea6"></path><path d="M717.7 297L833.3 163L762.7 144Z" fill="#19435d" stroke="#19435d"></path><path d="M753.7 413L774.7 383L668 391Z" fill="#0c2435" stroke="#0c2435"></path><path d="M550.3 540L636 540L541.3 451Z" fill="#0c2435" stroke="#0c2435"></path><path d="M119.7 285L181.3 333L245.3 293Z" fill="#1d4e6b" stroke="#1d4e6b"></path><path d="M245.3 293L181.3 333L308 348Z" fill="#0c2435" stroke="#0c2435"></path><path d="M138.7 159L245.3 293L243.3 166Z" fill="#19435d" stroke="#19435d"></path><path d="M229.3 486L322 540L353 473Z" fill="#205a7a" stroke="#205a7a"></path><path d="M353 473L322 540L462.7 540Z" fill="#1d4e6b" stroke="#1d4e6b"></path><path d="M437.7 0L290 0L340 53Z" fill="#246688" stroke="#246688"></path><path d="M340 53L290 0L252.3 126Z" fill="#297ea6" stroke="#297ea6"></path><path d="M252.3 126L138.7 159L243.3 166Z" fill="#112e42" stroke="#112e42"></path><path d="M181.3 333L229.3 486L308 348Z" fill="#15384f" stroke="#15384f"></path><path d="M816.3 50L721.7 0L739.7 115Z" fill="#277297" stroke="#277297"></path><path d="M739.7 115L721.7 0L625 120Z" fill="#19435d" stroke="#19435d"></path><path d="M863.3 309L833.3 163L717.7 297Z" fill="#277297" stroke="#277297"></path><path d="M762.7 144L816.3 50L739.7 115Z" fill="#15384f" stroke="#15384f"></path><path d="M180.3 0L138.7 159L252.3 126Z" fill="#081a28" stroke="#081a28"></path><path d="M138.7 159L119.7 285L245.3 293Z" fill="#277297" stroke="#277297"></path><path d="M70.7 457L194.3 540L229.3 486Z" fill="#297ea6" stroke="#297ea6"></path><path d="M882.3 360L863.3 309L774.7 383Z" fill="#205a7a" stroke="#205a7a"></path><path d="M774.7 383L863.3 309L717.7 297Z" fill="#112e42" stroke="#112e42"></path><path d="M842.3 434L774.7 383L753.7 413Z" fill="#277297" stroke="#277297"></path><path d="M636 540L750.7 540L652 440Z" fill="#0c2435" stroke="#0c2435"></path><path d="M881.3 0L816.3 50L960 122Z" fill="#277297" stroke="#277297"></path><path d="M833.3 163L816.3 50L762.7 144Z" fill="#205a7a" stroke="#205a7a"></path><path d="M750.7 540L842.3 434L753.7 413Z" fill="#1d4e6b" stroke="#1d4e6b"></path><path d="M88.7 397L229.3 486L181.3 333Z" fill="#081a28" stroke="#081a28"></path><path d="M229.3 486L194.3 540L322 540Z" fill="#19435d" stroke="#19435d"></path><path d="M290 0L180.3 0L252.3 126Z" fill="#297ea6" stroke="#297ea6"></path><path d="M842.3 434L882.3 360L774.7 383Z" fill="#19435d" stroke="#19435d"></path><path d="M863.3 309L960 272L833.3 163Z" fill="#19435d" stroke="#19435d"></path><path d="M180.3 0L93.7 124L138.7 159Z" fill="#277297" stroke="#277297"></path><path d="M138.7 159L0 147L119.7 285Z" fill="#1d4e6b" stroke="#1d4e6b"></path><path d="M0 298L88.7 397L119.7 285Z" fill="#277297" stroke="#277297"></path><path d="M119.7 285L88.7 397L181.3 333Z" fill="#081a28" stroke="#081a28"></path><path d="M180.3 0L139.7 0L93.7 124Z" fill="#246688" stroke="#246688"></path><path d="M0 435L70.7 457L88.7 397Z" fill="#00101c" stroke="#00101c"></path><path d="M88.7 397L70.7 457L229.3 486Z" fill="#0c2435" stroke="#0c2435"></path><path d="M750.7 540L865.3 540L842.3 434Z" fill="#00101c" stroke="#00101c"></path><path d="M960 458L960 381L882.3 360Z" fill="#15384f" stroke="#15384f"></path><path d="M960 381L960 272L882.3 360Z" fill="#19435d" stroke="#19435d"></path><path d="M882.3 360L960 272L863.3 309Z" fill="#15384f" stroke="#15384f"></path><path d="M960 122L816.3 50L833.3 163Z" fill="#00101c" stroke="#00101c"></path><path d="M816.3 50L881.3 0L721.7 0Z" fill="#081a28" stroke="#081a28"></path><path d="M70.7 457L100.7 540L194.3 540Z" fill="#00101c" stroke="#00101c"></path><path d="M960 272L960 174L833.3 163Z" fill="#112e42" stroke="#112e42"></path><path d="M960 458L882.3 360L842.3 434Z" fill="#1d4e6b" stroke="#1d4e6b"></path><path d="M0 147L0 298L119.7 285Z" fill="#19435d" stroke="#19435d"></path><path d="M70.7 457L0 540L100.7 540Z" fill="#15384f" stroke="#15384f"></path><path d="M0 147L138.7 159L93.7 124Z" fill="#1d4e6b" stroke="#1d4e6b"></path><path d="M960 174L960 122L833.3 163Z" fill="#0c2435" stroke="#0c2435"></path><path d="M0 298L0 370L88.7 397Z" fill="#297ea6" stroke="#297ea6"></path><path d="M0 55L0 147L93.7 124Z" fill="#0c2435" stroke="#0c2435"></path><path d="M865.3 540L960 458L842.3 434Z" fill="#00101c" stroke="#00101c"></path><path d="M0 370L0 435L88.7 397Z" fill="#1d4e6b" stroke="#1d4e6b"></path><path d="M139.7 0L0 55L93.7 124Z" fill="#112e42" stroke="#112e42"></path><path d="M960 122L960 0L881.3 0Z" fill="#00101c" stroke="#00101c"></path><path d="M865.3 540L960 540L960 458Z" fill="#277297" stroke="#277297"></path><path d="M139.7 0L0 0L0 55Z" fill="#1d4e6b" stroke="#1d4e6b"></path><path d="M0 435L0 540L70.7 457Z" fill="#00101c" stroke="#00101c"></path></g></svg>